<svg width="22" height="22" viewBox="0 0 22 22" fill="none" xmlns="http://www.w3.org/2000/svg">
<path d="M11 5.95833C10.0029 5.95833 9.0281 6.25402 8.199 6.80801C7.3699 7.36199 6.7237 8.14939 6.34211 9.07064C5.96052 9.99188 5.86067 11.0056 6.05521 11.9836C6.24974 12.9616 6.72991 13.8599 7.435 14.565C8.14009 15.2701 9.03843 15.7503 10.0164 15.9448C10.9944 16.1393 12.0081 16.0395 12.9294 15.6579C13.8506 15.2763 14.638 14.6301 15.192 13.801C15.746 12.9719 16.0417 11.9971 16.0417 11C16.0402 9.66333 15.5085 8.38184 14.5633 7.43667C13.6182 6.4915 12.3367 5.95984 11 5.95833ZM11 15.125C10.1842 15.125 9.38663 14.8831 8.70827 14.4298C8.02992 13.9766 7.50121 13.3323 7.189 12.5786C6.87679 11.8248 6.7951 10.9954 6.95426 10.1953C7.11342 9.39508 7.50629 8.66008 8.08319 8.08319C8.66008 7.50629 9.39508 7.11342 10.1953 6.95426C10.9954 6.7951 11.8248 6.87679 12.5786 7.189C13.3323 7.50121 13.9766 8.02992 14.4298 8.70827C14.8831 9.38663 15.125 10.1842 15.125 11C15.1238 12.0936 14.6888 13.1421 13.9155 13.9155C13.1421 14.6888 12.0936 15.1238 11 15.125ZM16.0417 0H5.95833C4.37863 0.00178931 2.86415 0.630115 1.74713 1.74713C0.630115 2.86415 0.00178931 4.37863 0 5.95833V16.0417C0.00178931 17.6214 0.630115 19.1359 1.74713 20.2529C2.86415 21.3699 4.37863 21.9982 5.95833 22H16.0417C17.6214 21.9982 19.1359 21.3699 20.2529 20.2529C21.3699 19.1359 21.9982 17.6214 22 16.0417V5.95833C21.9982 4.37863 21.3699 2.86415 20.2529 1.74713C19.1359 0.630115 17.6214 0.00178931 16.0417 0ZM21.0833 16.0417C21.0818 17.3783 20.5502 18.6598 19.605 19.605C18.6598 20.5502 17.3783 21.0818 16.0417 21.0833H5.95833C4.62166 21.0818 3.34017 20.5502 2.395 19.605C1.44984 18.6598 0.918176 17.3783 0.916667 16.0417V5.95833C0.918176 4.62166 1.44984 3.34017 2.395 2.395C3.34017 1.44984 4.62166 0.918176 5.95833 0.916667H16.0417C17.3783 0.918176 18.6598 1.44984 19.605 2.395C20.5502 3.34017 21.0818 4.62166 21.0833 5.95833V16.0417ZM17.875 5.04167C17.875 5.22297 17.8212 5.40019 17.7205 5.55094C17.6198 5.70168 17.4766 5.81918 17.3091 5.88856C17.1416 5.95794 16.9573 5.97609 16.7795 5.94072C16.6017 5.90535 16.4384 5.81805 16.3102 5.68985C16.182 5.56165 16.0947 5.39832 16.0593 5.2205C16.0239 5.04268 16.0421 4.85837 16.1114 4.69087C16.1808 4.52337 16.2983 4.38021 16.4491 4.27949C16.5998 4.17876 16.777 4.125 16.9583 4.125C17.2014 4.12528 17.4344 4.22194 17.6062 4.39379C17.7781 4.56564 17.8747 4.79864 17.875 5.04167Z" fill="white"/>
</svg>
