<svg width="23" height="22" viewBox="0 0 23 22" fill="none" xmlns="http://www.w3.org/2000/svg">
<path d="M3.14421 0.0189209C1.68298 0.0189209 0.500236 1.20379 0.5 2.66171C0.5 4.12105 1.68274 5.30568 3.14444 5.30568C4.60213 5.30568 5.78652 4.12105 5.78652 2.66171C5.78652 1.20355 4.60189 0.0189209 3.14421 0.0189209Z" fill="white"/>
<path d="M5.42316 7.3111H0.863586V21.9811H5.42316V7.3111Z" fill="white"/>
<path d="M17.0308 6.94635C14.8128 6.94635 13.3256 8.16243 12.7168 9.31562H12.6558V7.31113H8.28277H8.28253V21.9809H12.8381V14.7237C12.8381 12.8104 13.2024 10.9572 15.5745 10.9572C17.9126 10.9572 17.9438 13.1454 17.9438 14.8464V21.9806H22.5V13.9343C22.5 9.98465 21.6478 6.94635 17.0308 6.94635Z" fill="white"/>
</svg>
