<svg width="28" height="27" viewBox="0 0 28 27" fill="none" xmlns="http://www.w3.org/2000/svg">
<path d="M25.76 0H2.24C1.64612 0.000649231 1.07676 0.228429 0.656825 0.633367C0.236889 1.0383 0.000673277 1.58733 0 2.16V24.84C0.000679193 25.4127 0.236897 25.9617 0.656831 26.3666C1.07677 26.7716 1.64612 26.9993 2.24 27H25.76C26.3539 26.9993 26.9232 26.7716 27.3432 26.3666C27.7631 25.9617 27.9993 25.4127 28 24.84V2.16C27.9993 1.58733 27.7631 1.0383 27.3432 0.633367C26.9232 0.228429 26.3539 0.000649231 25.76 0ZM9.52 19.9801C9.52 20.2666 9.402 20.5413 9.19196 20.7438C8.98192 20.9464 8.69704 21.0601 8.4 21.0601C8.10296 21.0601 7.81808 20.9464 7.60804 20.7438C7.398 20.5413 7.28 20.2666 7.28 19.9801V11.3401C7.28 11.0537 7.398 10.779 7.60804 10.5765C7.81808 10.3739 8.10296 10.2601 8.4 10.2601C8.69704 10.2601 8.98192 10.3739 9.19196 10.5765C9.402 10.779 9.52 11.0537 9.52 11.3401V19.9801ZM8.4 8.64C8.06773 8.64 7.74292 8.54499 7.46664 8.36698C7.19037 8.18897 6.97504 7.93596 6.84788 7.63995C6.72073 7.34393 6.68746 7.0182 6.75228 6.70395C6.8171 6.3897 6.97711 6.10105 7.21206 5.87449C7.44701 5.64793 7.74636 5.49364 8.07225 5.43113C8.39814 5.36862 8.73593 5.4007 9.04291 5.52332C9.34989 5.64593 9.61227 5.85357 9.79687 6.11998C9.98147 6.38638 10.08 6.69959 10.08 7.02C10.08 7.44965 9.903 7.8617 9.58794 8.16551C9.27288 8.46932 8.84556 8.64 8.4 8.64ZM21.84 19.9801C21.84 20.2666 21.722 20.5413 21.512 20.7438C21.3019 20.9464 21.017 21.0601 20.72 21.0601C20.423 21.0601 20.1381 20.9464 19.928 20.7438C19.718 20.5413 19.6 20.2666 19.6 19.9801V15.1201C19.6 14.4041 19.305 13.7173 18.7799 13.2109C18.2548 12.7046 17.5426 12.4201 16.8 12.4201C16.0574 12.4201 15.3452 12.7046 14.8201 13.2109C14.295 13.7173 14 14.4041 14 15.1201V19.9801C14 20.2666 13.882 20.5413 13.672 20.7438C13.4619 20.9464 13.177 21.0601 12.88 21.0601C12.583 21.0601 12.2981 20.9464 12.088 20.7438C11.878 20.5413 11.76 20.2666 11.76 19.9801V11.3401C11.7599 11.0747 11.8613 10.8184 12.0447 10.6205C12.2281 10.4225 12.4808 10.2966 12.7543 10.2669C13.0279 10.2372 13.3033 10.3057 13.5278 10.4594C13.7523 10.6131 13.9102 10.8412 13.9713 11.1C14.7287 10.6037 15.6122 10.3158 16.5266 10.2674C17.441 10.219 18.3517 10.4119 19.161 10.8254C19.9702 11.2388 20.6472 11.8571 21.1193 12.6138C21.5913 13.3706 21.8405 14.2371 21.84 15.1201V19.9801Z" fill="#2D2D2D"/>
</svg>
