<svg width="25" height="25" viewBox="0 0 25 25" fill="none" xmlns="http://www.w3.org/2000/svg">
<path d="M20.7792 3.49579C18.5092 1.24271 15.4904 0.00126638 12.2741 0C5.64708 0 0.253488 5.34697 0.250836 11.9193C0.249985 14.0201 0.803616 16.0708 1.85574 17.8785L0.150024 24.0554L6.52371 22.3979C8.27985 23.3475 10.257 23.8479 12.2693 23.8487H12.2742C18.9006 23.8487 24.2947 18.5011 24.2974 11.9288C24.2986 8.74375 23.0492 5.74887 20.7792 3.49579ZM12.2742 21.8356H12.2702C10.477 21.8349 8.71823 21.3573 7.18391 20.4546L6.81897 20.2399L3.03674 21.2235L4.0463 17.5675L3.80863 17.1927C2.8083 15.6153 2.27998 13.792 2.28076 11.9201C2.28292 6.45745 6.7659 2.01322 12.2781 2.01322C14.9473 2.01422 17.4564 3.04616 19.3431 4.9188C21.2298 6.79145 22.2683 9.28073 22.2673 11.928C22.2652 17.3911 17.7822 21.8356 12.2742 21.8356ZM17.7557 14.4154C17.4552 14.2663 15.9783 13.5458 15.7029 13.4464C15.4275 13.3469 15.2273 13.2973 15.027 13.5955C14.8267 13.8936 14.251 14.5645 14.0757 14.7633C13.9005 14.9621 13.7252 14.9869 13.4248 14.8378C13.1244 14.6887 12.1564 14.3742 11.0089 13.3595C10.1159 12.5699 9.51294 11.5944 9.3377 11.2962C9.16247 10.998 9.31907 10.8369 9.46945 10.6884C9.60458 10.5549 9.76986 10.3405 9.92008 10.1666C10.0703 9.99269 10.1204 9.86839 10.2205 9.66964C10.3206 9.47085 10.2705 9.2969 10.1954 9.14782C10.1204 8.99875 9.51952 7.53274 9.26917 6.9364C9.02535 6.35562 8.77762 6.4342 8.59322 6.42508C8.41818 6.41644 8.2177 6.41462 8.01745 6.41462C7.8172 6.41462 7.49172 6.48915 7.21636 6.78733C6.941 7.08551 6.16492 7.80608 6.16492 9.27206C6.16492 10.738 7.24138 12.1543 7.39159 12.3531C7.54181 12.5519 9.50996 15.5603 12.5236 16.8504C13.2404 17.1573 13.7999 17.3405 14.2362 17.4778C14.9559 17.7044 15.6108 17.6725 16.1285 17.5958C16.7057 17.5103 17.9058 16.8753 18.1562 16.1796C18.4066 15.4838 18.4066 14.8875 18.3315 14.7633C18.2564 14.6391 18.0561 14.5645 17.7557 14.4154Z" fill="white"/>
</svg>
